<svg id="visual" viewBox="0 0 900 450" width="900" height="450" xmlns="http://www.w3.org/2000/svg" xmlns:xlink="http://www.w3.org/1999/xlink" version="1.1"><rect x="0" y="0" width="900" height="450" fill="#2762ff"></rect><g transform="translate(447.4983758615565 205.52478298566956)"><path d="M84.9 -118.9C109.5 -99 128.4 -73.5 143.6 -42.9C158.8 -12.3 170.2 23.4 166.5 60.1C162.8 96.8 144 134.6 113.7 157.9C83.5 181.2 41.7 190.1 -1.2 191.7C-44.1 193.3 -88.2 187.7 -110.5 161.8C-132.8 135.8 -133.3 89.6 -142 49.3C-150.7 9 -167.6 -25.5 -160.5 -53.6C-153.4 -81.8 -122.2 -103.6 -91.5 -121.4C-60.7 -139.3 -30.4 -153.1 -0.1 -153C30.2 -152.9 60.3 -138.7 84.9 -118.9" fill="none" stroke="#5eb6ff" stroke-width="6"></path></g></svg>