<svg id="visual" viewBox="0 0 900 450" width="900" height="450" xmlns="http://www.w3.org/2000/svg" xmlns:xlink="http://www.w3.org/1999/xlink" version="1.1"><rect x="0" y="0" width="900" height="450" fill="#2762ff"></rect><g transform="translate(447.8796836742752 224.48802738976076)"><path d="M112.5 -143.5C148.1 -128.9 181.1 -99.2 187.1 -64.6C193.1 -30 172.1 9.6 155.2 46.9C138.2 84.3 125.3 119.4 100 138C74.8 156.7 37.4 158.8 3.5 154C-30.4 149.1 -60.7 137.3 -88 119.3C-115.3 101.3 -139.4 77.2 -158.6 45.2C-177.8 13.1 -192.1 -27 -178.6 -54.8C-165.1 -82.6 -123.9 -98.2 -89.5 -113.2C-55.1 -128.2 -27.6 -142.6 5.4 -150.1C38.4 -157.5 76.8 -158 112.5 -143.5" fill="none" stroke="#5eb6ff" stroke-width="6"></path></g></svg>