<svg id="visual" viewBox="0 0 900 450" width="900" height="450" xmlns="http://www.w3.org/2000/svg" xmlns:xlink="http://www.w3.org/1999/xlink" version="1.1"><rect x="0" y="0" width="900" height="450" fill="#2762ff"></rect><path d="M0 288L21.5 286.8C43 285.7 86 283.3 128.8 291.8C171.7 300.3 214.3 319.7 257.2 323C300 326.3 343 313.7 385.8 321.8C428.7 330 471.3 359 514.2 362.8C557 366.7 600 345.3 642.8 341.7C685.7 338 728.3 352 771.2 348.7C814 345.3 857 324.7 878.5 314.3L900 304L900 451L878.5 451C857 451 814 451 771.2 451C728.3 451 685.7 451 642.8 451C600 451 557 451 514.2 451C471.3 451 428.7 451 385.8 451C343 451 300 451 257.2 451C214.3 451 171.7 451 128.8 451C86 451 43 451 21.5 451L0 451Z" fill="#e7f9ff" stroke-linecap="round" stroke-linejoin="miter"></path></svg>